<svg width="432" height="329" viewBox="0 0 432 329" fill="none" xmlns="http://www.w3.org/2000/svg">
<g clip-path="url(#clip0_673_17917)">
<path d="M121.522 273.358L18.491 245.551L135.208 212.591L121.522 273.358Z" fill="url(#paint0_linear_673_17917)" fill-opacity="0.45"/>
<path d="M51.8451 36.9642C53.8408 28.1037 62.138 22.1283 71.1742 23.0439L181.318 34.2054L132.136 252.568L26.3202 241.845C15.6011 240.759 8.24465 230.544 10.612 220.033L51.8451 36.9642Z" fill="#8CE1FF"/>
<path d="M181.32 34.2036L299.51 76.432L250.328 294.795L132.138 252.566L181.32 34.2036Z" fill="#8CE1FF"/>
<path d="M299.506 76.4332L405.321 87.156C416.04 88.2422 423.397 98.4571 421.03 108.968L379.796 292.037C377.801 300.897 369.504 306.873 360.467 305.957L250.323 294.796L299.506 76.4332Z" fill="#8CE1FF"/>
<path d="M182.13 31.9314L181.854 31.8326L181.562 31.803L71.5078 20.6507C61.1371 19.5998 51.659 26.8029 49.3171 37.2008L8.42968 218.735C5.67383 230.97 13.7415 242.997 25.9866 244.237L131.6 254.94L249.513 297.069L249.79 297.168L250.082 297.198L360.136 308.35C370.507 309.401 379.985 302.198 382.327 291.8L423.214 110.266C425.97 98.0303 417.902 86.0042 405.657 84.7633L300.044 74.061L182.13 31.9314Z" fill="#91E2FF" stroke="white" stroke-width="4.82838"/>
<mask id="mask0_673_17917" style="mask-type:alpha" maskUnits="userSpaceOnUse" x="10" y="22" width="412" height="285">
<path d="M51.6722 37.7312C53.7639 28.4446 62.1884 22.1329 71.2644 23.0526L181.318 34.2049L299.508 76.4333L405.414 87.1652C416.103 88.2484 423.322 98.798 420.859 109.735L379.972 291.27C377.88 300.556 369.456 306.868 360.379 305.948L250.326 294.796L132.136 252.567L26.23 241.836C15.5406 240.752 8.3214 230.203 10.7849 219.265L51.6722 37.7312Z" fill="#125E79"/>
</mask>
<g mask="url(#mask0_673_17917)">
<path fill-rule="evenodd" clip-rule="evenodd" d="M163.625 69.334L166.742 86.1425L172.147 90.2362L178.194 104.253L195.713 108.199L216.112 84.0319L211.037 70.8091L178.229 63.2337L172.098 64.9149L163.625 69.334ZM224.012 133.915L209.19 143.039L211.974 148.226L204.872 146.018L203.662 152.737L210.605 154.301L220.363 150.115L229.886 160.467L240.301 162.813L238.998 168.599L225.401 165.536L219.855 159.12L206.258 156.057L193.44 161.682L190.182 176.146L196.69 183.691L210.576 186.819L212.309 199.368L208.439 203.056L208.963 222.324L211.327 228.024L218.559 229.653L234.952 210.851L235.917 199.822L244.033 196.178L255.354 185.05L247.921 174.864L250.179 172.941L253.129 176.037L264.534 180.734L268.891 197.826L271.509 199.023L273.634 202.411L281.773 190.565L289.928 206.993L299.332 203.031L297.966 196.948L313.33 189.466L311.401 177.784L315.741 178.762L318.068 185.973L321.511 185.533L320.37 179.804L323.27 177.722L327.031 178.569L334.967 170.325L336.596 163.093L332.546 162.181L337.61 157.242L346.448 159.841L351.541 156.124L356.393 157.521L349.528 162.358L357.05 164.052L372.638 156.924L383.053 159.27L384.161 154.352L375.701 143.327L355.784 134.586L353.008 126.666L345.197 124.906L341.262 128.883L326.682 120.736L324.537 105.966L315.859 104.012L293.124 113.178L291.825 110.584L286.674 109.424L256.382 118.408L243.069 105.986L219.472 124.381L224.012 133.915ZM75.9312 96.9142L69.8403 101.014L73.4057 102.729L87.258 95.2098L94.2297 97.9959L103.954 116.904L102.207 131.406L110.101 148.99L134.717 167.909L128.329 174.677L133.909 191.741L122.468 222.296L131.245 234.608L133.44 220.816L137.715 217.617L165.607 198.88L171.685 188.09L151.1 164L150.039 163.989L138.364 163.867L122.252 151.727L123.946 144.205L138.129 144.664L157.049 132.864L168.965 127.291L173.049 105.11L164.784 103.248L163.315 105.045L161.846 106.842L152.31 89.7997L160.442 80.6882L156.871 69.5491L121.288 61.5346L102.791 73.4789L86.3017 69.7649L75.9652 73.8202L72.8376 87.7063L75.9312 96.9142ZM334.823 181.474L348.487 172.089L349.595 167.171L356.538 168.735L353.984 173.327L336.826 185.825L334.823 181.474ZM322.973 190.899L331.256 185.165L334.197 188.248L324.142 195.102L322.973 190.899ZM294.773 211.124L304.625 207.871L306.418 210.707L302.026 216.709L296.53 215.471L294.773 211.124ZM289.387 210.799L284.656 211.557L290.742 222.655L300.511 226.138L302.736 221.709L293.674 218.756L289.387 210.799ZM314.417 214.332L313.556 218.155L317.895 219.132L320.295 223.321L323.347 224.616L325.25 222.917L331.271 227.224L328.179 222.057L328.7 219.742L321.896 214.866L318.756 215.309L314.417 214.332ZM309.814 226.67L302.826 229.352L303.817 231.703L294.935 233.35L292.581 246.498L308.406 246.415L316.968 255.639L323.622 257.137L330.799 244.163L323.093 228.445L318.766 234.158L316.134 232.349L317.046 228.299L309.814 226.67ZM328.361 259.14L329.795 263.796L341.322 256.038L336.42 253.052L328.361 259.14ZM201.074 109.98L204.797 106.217L211.711 107.774L210.971 111.059L205.384 113.827L201.074 109.98ZM178.066 109.975L181.02 119.844L184.305 120.584L186.278 111.825L178.066 109.975ZM214.06 123.834L210.035 126.379L212.033 130.281L206.667 133.674L209.211 137.698L217.931 132.184L214.06 123.834ZM267.356 109.377L267.016 100.672L282.991 91.0402L284.017 94.1474L271.026 103.301L270.163 107.133L267.356 109.377Z" fill="#FEEAA4"/>
<path fill-rule="evenodd" clip-rule="evenodd" d="M177.594 62.1273C177.78 62.0821 177.975 62.0806 178.162 62.1228L211.431 69.616C211.839 69.7079 212.174 69.9974 212.324 70.3876L217.304 83.3642C217.465 83.7847 217.388 84.2596 217.102 84.6071L197.025 108.962C196.725 109.326 196.246 109.49 195.786 109.387L178.139 105.412C177.759 105.326 177.44 105.068 177.277 104.713L170.875 90.7365L166.084 86.7501C165.863 86.5666 165.713 86.3128 165.657 86.0313L162.391 69.4894C162.285 68.9482 162.545 68.4009 163.033 68.1427L171.557 63.6278C171.649 63.5791 171.747 63.542 171.848 63.5175L177.594 62.1273ZM177.898 64.6259L172.588 65.9105L165.024 69.917L168.024 85.112L172.693 88.9966C172.836 89.1163 172.952 89.2667 173.03 89.4369L179.292 103.109L195.585 106.779L214.709 83.5794L210.229 71.9079L177.898 64.6259ZM283.026 89.7959C283.369 89.8931 283.653 90.1313 283.809 90.451L285.471 93.8652C285.742 94.4211 285.566 95.0916 285.056 95.4422L272.149 104.326L271.345 107.898C271.275 108.207 271.09 108.479 270.828 108.657L267.879 110.663C267.491 110.927 266.987 110.951 266.575 110.726C266.163 110.5 265.913 110.062 265.927 109.592L266.194 100.599C266.206 100.184 266.424 99.8017 266.775 99.5796L282.017 89.9418C282.317 89.7517 282.684 89.6987 283.026 89.7959ZM268.673 101.337L268.498 107.218L269.014 106.867L269.818 103.299C269.887 102.992 270.069 102.722 270.329 102.544L282.753 93.9927L282.173 92.8012L268.673 101.337ZM315.383 102.853C315.619 102.758 315.877 102.737 316.125 102.793L324.804 104.748C325.309 104.861 325.692 105.275 325.766 105.787L327.823 119.947L341.034 127.329L344.3 124.028C344.604 123.721 345.043 123.593 345.464 123.687L353.275 125.447C353.695 125.541 354.037 125.846 354.18 126.253L356.776 133.66L376.195 142.184C376.388 142.268 376.556 142.4 376.684 142.567L385.144 153.592C385.37 153.886 385.453 154.265 385.372 154.627L384.264 159.545C384.112 160.219 383.443 160.642 382.77 160.49L372.767 158.237L357.562 165.19C357.313 165.303 357.034 165.332 356.767 165.272L349.246 163.578C348.764 163.47 348.391 163.087 348.294 162.602C348.198 162.118 348.396 161.622 348.8 161.337L353.534 158.002L351.775 157.495L347.177 160.851C346.863 161.08 346.46 161.15 346.087 161.04L337.951 158.648L335.06 161.468L336.863 161.874C337.536 162.026 337.959 162.695 337.808 163.368L336.179 170.601C336.128 170.824 336.018 171.028 335.86 171.193L327.924 179.437C327.62 179.751 327.175 179.885 326.748 179.789L323.535 179.065L321.745 180.351L322.729 185.289C322.797 185.629 322.72 185.982 322.518 186.263C322.315 186.545 322.005 186.729 321.662 186.773L318.219 187.214C317.622 187.29 317.055 186.93 316.87 186.358L314.762 179.825L312.929 179.412L314.555 189.263C314.645 189.808 314.366 190.348 313.869 190.59L299.394 197.64L300.543 202.758C300.676 203.348 300.366 203.949 299.809 204.184L290.405 208.145C289.797 208.401 289.094 208.14 288.801 207.549L281.591 193.026L274.656 203.119C274.418 203.466 274.021 203.67 273.6 203.661C273.179 203.652 272.791 203.432 272.567 203.075L270.641 200.005L268.363 198.963C268.019 198.806 267.765 198.501 267.672 198.135L263.469 181.651L252.645 177.194C252.483 177.127 252.337 177.027 252.216 176.9L250.081 174.66L249.606 175.065L256.356 184.313C256.721 184.814 256.665 185.507 256.223 185.942L244.901 197.07C244.795 197.174 244.672 197.259 244.537 197.319L237.09 200.662L236.19 210.961C236.167 211.225 236.06 211.474 235.887 211.674L219.493 230.475C219.191 230.821 218.724 230.974 218.276 230.873L211.044 229.244C210.648 229.155 210.319 228.879 210.164 228.503L207.8 222.804C207.741 222.662 207.709 222.512 207.705 222.359L207.181 203.091C207.172 202.737 207.313 202.396 207.569 202.152L210.975 198.906L209.448 187.849L196.407 184.911C196.146 184.853 195.911 184.711 195.736 184.508L189.228 176.963C188.969 176.663 188.868 176.259 188.955 175.872L192.213 161.408C192.3 161.02 192.566 160.697 192.93 160.538L205.748 154.913C205.992 154.806 206.264 154.78 206.524 154.838L220.121 157.901C220.382 157.96 220.617 158.101 220.792 158.303L226.069 164.408L238.045 167.105L238.799 163.758L229.603 161.687C229.355 161.631 229.13 161.501 228.958 161.314L220.034 151.613L211.09 155.45C210.848 155.554 210.579 155.579 210.322 155.521L203.379 153.957C202.726 153.81 202.305 153.175 202.424 152.516L203.633 145.797C203.697 145.445 203.908 145.136 204.215 144.95C204.521 144.764 204.892 144.719 205.234 144.825L209.42 146.126L208.081 143.631C207.768 143.048 207.963 142.322 208.527 141.975L222.393 133.439L218.335 124.919C218.083 124.39 218.233 123.756 218.695 123.396L242.292 105.001C242.777 104.623 243.464 104.654 243.914 105.073L256.704 117.007L286.311 108.226C286.516 108.166 286.733 108.158 286.941 108.205L292.091 109.365C292.457 109.448 292.766 109.69 292.934 110.025L293.717 111.588L315.383 102.853ZM315.956 105.317L293.583 114.338C292.98 114.581 292.29 114.32 291.999 113.738L290.964 111.674L286.709 110.716L256.729 119.607C256.304 119.733 255.845 119.624 255.521 119.322L242.988 107.628L221.024 124.75L225.132 133.378C225.407 133.954 225.203 134.645 224.659 134.98L210.84 143.487L213.067 147.635C213.307 148.082 213.253 148.63 212.93 149.022C212.607 149.413 212.079 149.571 211.594 149.42L205.843 147.632L205.096 151.781L210.477 152.993L219.862 148.967C220.35 148.758 220.916 148.879 221.275 149.27L230.534 159.334L240.567 161.594C241.241 161.746 241.664 162.415 241.512 163.088L240.209 168.874C240.057 169.548 239.388 169.971 238.715 169.819L225.118 166.756C224.857 166.698 224.622 166.557 224.447 166.354L219.17 160.249L206.376 157.368L194.513 162.573L191.532 175.807L197.359 182.563L210.843 185.6C211.351 185.715 211.735 186.132 211.806 186.649L213.54 199.198C213.595 199.596 213.455 199.996 213.164 200.274L209.696 203.578L210.198 222.059L212.225 226.947L218.098 228.27L233.735 210.338L234.663 199.714C234.703 199.262 234.984 198.868 235.397 198.682L243.308 195.13L253.7 184.915L246.904 175.602C246.518 175.074 246.605 174.338 247.103 173.914L249.36 171.99C249.865 171.56 250.618 171.599 251.075 172.079L253.842 174.983L265.002 179.579C265.367 179.729 265.639 180.043 265.737 180.426L269.947 196.938L272.021 197.887C272.243 197.989 272.43 198.153 272.56 198.36L273.673 200.135L280.735 189.858C280.986 189.493 281.412 189.288 281.854 189.319C282.296 189.35 282.688 189.613 282.885 190.01L290.517 205.385L297.875 202.286L296.738 197.223C296.611 196.657 296.89 196.079 297.411 195.825L311.937 188.75L310.16 177.989C310.092 177.578 310.233 177.161 310.535 176.876C310.838 176.591 311.262 176.474 311.668 176.566L316.007 177.543C316.439 177.64 316.787 177.958 316.922 178.378L318.931 184.602L320.015 184.464L319.136 180.049C319.04 179.568 319.234 179.076 319.632 178.789L322.533 176.707C322.823 176.499 323.189 176.425 323.537 176.503L326.611 177.195L333.816 169.711L335.094 164.039L332.263 163.401C331.816 163.3 331.46 162.963 331.335 162.522C331.21 162.081 331.337 161.607 331.665 161.287L336.729 156.348C337.053 156.032 337.521 155.916 337.955 156.043L346.201 158.468L350.796 155.115C351.107 154.887 351.507 154.817 351.878 154.923L356.731 156.32C357.193 156.454 357.538 156.84 357.618 157.314C357.698 157.788 357.498 158.266 357.105 158.543L352.543 161.758L356.905 162.741L372.11 155.788C372.359 155.674 372.638 155.645 372.905 155.705L382.1 157.777L382.804 154.649L374.896 144.344L355.273 135.731C354.956 135.592 354.711 135.327 354.596 135L352.049 127.733L345.59 126.279L342.142 129.763C341.747 130.162 341.134 130.249 340.644 129.975L326.064 121.828C325.725 121.638 325.493 121.301 325.437 120.916L323.416 106.998L315.956 105.317ZM120.602 60.4851C120.884 60.3031 121.227 60.242 121.555 60.3158L157.138 68.3303C157.57 68.4276 157.918 68.7463 158.054 69.1682L161.624 80.3073C161.759 80.729 161.661 81.1908 161.366 81.5212L153.828 89.9677L162.032 104.63L163.808 102.458C164.107 102.091 164.588 101.925 165.05 102.029L173.315 103.891C173.97 104.038 174.391 104.677 174.27 105.337L170.186 127.518C170.113 127.916 169.852 128.253 169.486 128.424L157.639 133.965L138.783 145.725C138.572 145.856 138.328 145.922 138.081 145.914L124.93 145.488L123.64 151.215L138.779 162.622L151.105 162.751C151.466 162.754 151.808 162.914 152.043 163.188L172.627 187.279C172.968 187.678 173.024 188.247 172.766 188.704L166.688 199.494C166.592 199.664 166.458 199.81 166.296 199.918L138.431 218.638L134.587 221.514L132.472 234.805C132.392 235.307 132.017 235.71 131.523 235.826C131.029 235.942 130.514 235.748 130.219 235.335L121.442 223.023C121.2 222.684 121.143 222.248 121.289 221.859L132.577 191.713L127.133 175.067C126.991 174.631 127.098 174.153 127.412 173.82L132.851 168.058L109.332 149.982C109.168 149.856 109.038 149.691 108.953 149.503L101.059 131.918C100.966 131.711 100.931 131.482 100.958 131.257L102.659 117.136L93.3237 98.9839L87.3307 96.5889L73.9939 103.828C73.641 104.02 73.2176 104.03 72.8557 103.856L69.2904 102.141C68.8866 101.947 68.6177 101.551 68.5854 101.104C68.5532 100.658 68.7626 100.228 69.1342 99.9775L74.4347 96.4099L71.6446 88.105C71.5717 87.8882 71.5598 87.6555 71.61 87.4323L74.7376 73.5462C74.8287 73.1416 75.1145 72.8086 75.5006 72.6572L85.837 68.6019C86.0697 68.5106 86.3244 68.4912 86.5682 68.5461L102.546 72.1448L120.602 60.4851ZM121.517 62.87L103.461 74.5297C103.179 74.7117 102.836 74.7728 102.509 74.699L86.393 71.0693L77.0309 74.7423L74.1258 87.6404L77.108 96.5168C77.2872 97.0502 77.0879 97.6376 76.621 97.9519L72.3397 100.833L73.3632 101.326L86.6535 94.1119C86.9801 93.9346 87.3687 93.9118 87.7137 94.0497L94.6854 96.8358C94.9653 96.9477 95.1954 97.1569 95.3332 97.4249L105.057 116.333C105.171 116.555 105.216 116.807 105.186 117.055L103.482 131.211L111.105 148.192L135.471 166.919C135.751 167.134 135.927 167.458 135.955 167.81C135.983 168.163 135.861 168.511 135.618 168.768L129.74 174.996L135.089 191.353C135.177 191.622 135.171 191.914 135.072 192.18L123.863 222.113L130.483 231.397L132.197 220.62C132.248 220.299 132.423 220.011 132.683 219.816L136.958 216.617C136.969 216.609 136.979 216.602 136.989 216.595C136.996 216.59 137.003 216.585 137.01 216.58L164.656 198.009L170.159 188.239L150.511 165.244L138.342 165.117C138.075 165.115 137.816 165.026 137.603 164.866L121.491 152.726C121.099 152.43 120.916 151.932 121.024 151.453L122.718 143.931C122.85 143.346 123.379 142.937 123.978 142.956L137.782 143.403L156.38 131.804C156.422 131.777 156.466 131.753 156.512 131.732L167.844 126.433L171.594 106.066L165.255 104.638L162.806 107.634C162.544 107.954 162.141 108.124 161.729 108.088C161.317 108.052 160.949 107.814 160.747 107.453L151.211 90.4107C150.951 89.9453 151.014 89.3659 151.369 88.968L159.025 80.3898L155.891 70.6121L121.517 62.87ZM203.38 105.532C203.682 105.201 204.139 105.058 204.577 105.157L212.098 106.851C212.772 107.002 213.195 107.671 213.043 108.345L212.392 111.238C212.31 111.602 212.069 111.911 211.735 112.079L205.905 115.021C205.436 115.258 204.87 115.176 204.487 114.817L200.22 110.817C199.721 110.349 199.691 109.566 200.153 109.061L203.38 105.532ZM204.735 107.755L202.831 109.837L205.559 112.396L210.082 110.113L210.33 109.015L204.735 107.755ZM177.381 109.263C177.683 108.938 178.137 108.798 178.571 108.895L186.671 110.72C187.344 110.871 187.767 111.54 187.616 112.214L185.661 120.893C185.509 121.566 184.84 121.989 184.167 121.837L180.984 121.121C180.545 121.022 180.193 120.694 180.063 120.263L177.1 110.477C176.971 110.051 177.078 109.589 177.381 109.263ZM180.114 111.806L182.244 118.842L183.497 119.124L184.902 112.884L180.114 111.806ZM214.117 122.504C214.484 122.589 214.794 122.835 214.959 123.174L219.116 131.71C219.395 132.283 219.199 132.973 218.66 133.314L209.799 138.917C209.511 139.099 209.161 139.156 208.83 139.074C208.499 138.992 208.216 138.778 208.046 138.482L205.646 134.294C205.313 133.713 205.497 132.973 206.063 132.616L210.778 129.634L209.397 126.877C209.131 126.345 209.276 125.699 209.745 125.333L213.065 122.737C213.363 122.504 213.749 122.419 214.117 122.504ZM212.091 126.672L213.52 129.527C213.807 130.101 213.613 130.799 213.07 131.143L208.41 134.089L209.566 136.106L216.379 131.799L213.388 125.658L212.091 126.672ZM348.367 166.897C348.519 166.224 349.188 165.801 349.861 165.952L356.804 167.516C357.189 167.603 357.51 167.865 357.671 168.225C357.832 168.585 357.814 168.999 357.622 169.343L355.068 173.935C354.98 174.094 354.858 174.231 354.712 174.338L337.554 186.836C337.251 187.057 336.865 187.13 336.502 187.035C336.14 186.941 335.839 186.689 335.682 186.348L333.679 181.998C333.424 181.445 333.605 180.789 334.107 180.445L347.367 171.337L348.367 166.897ZM350.532 168.666L349.699 172.365C349.629 172.672 349.446 172.942 349.187 173.12L336.39 181.909L337.315 183.917L353.017 172.48L354.625 169.588L350.532 168.666ZM330.536 184.138C331.042 183.788 331.727 183.858 332.152 184.303L335.093 187.385C335.347 187.651 335.471 188.014 335.432 188.38C335.394 188.745 335.196 189.074 334.893 189.281L324.838 196.135C324.505 196.362 324.083 196.415 323.705 196.277C323.326 196.138 323.038 195.826 322.93 195.438L321.76 191.234C321.618 190.722 321.815 190.175 322.253 189.872L330.536 184.138ZM331.081 186.801L324.407 191.421L324.871 193.087L332.267 188.045L331.081 186.801ZM304.225 206.685C304.77 206.505 305.367 206.719 305.673 207.204L307.466 210.039C307.741 210.473 307.722 211.031 307.419 211.445L303.027 217.448C302.733 217.849 302.229 218.038 301.744 217.929L296.247 216.691C295.847 216.601 295.516 216.32 295.363 215.94L293.606 211.592C293.477 211.272 293.486 210.912 293.631 210.599C293.776 210.285 294.045 210.046 294.373 209.937L304.225 206.685ZM296.424 211.893L297.435 214.396L301.493 215.31L304.899 210.656L304.082 209.365L296.424 211.893ZM321.713 213.629C322.031 213.584 322.354 213.663 322.616 213.851L329.42 218.727C329.829 219.019 330.022 219.528 329.912 220.018L329.5 221.844L332.336 226.582C332.64 227.091 332.545 227.742 332.11 228.144C331.674 228.545 331.017 228.586 330.536 228.241L325.328 224.516L324.172 225.549C323.811 225.871 323.296 225.956 322.851 225.767L319.799 224.472C319.548 224.365 319.338 224.18 319.203 223.943L317.076 220.232L313.273 219.375C312.599 219.223 312.176 218.555 312.328 217.881L313.189 214.058C313.341 213.384 314.01 212.961 314.683 213.113L318.8 214.04L321.713 213.629ZM321.566 216.174L318.923 216.548C318.773 216.569 318.621 216.563 318.473 216.529L315.353 215.827L315.042 217.211L318.161 217.914C318.503 217.991 318.797 218.208 318.971 218.512L321.163 222.335L323.098 223.156L324.409 221.985C324.845 221.596 325.493 221.56 325.969 221.901L327.108 222.716L327.098 222.699C326.934 222.424 326.881 222.096 326.952 221.783L327.291 220.276L321.566 216.174ZM289.181 209.565C289.706 209.481 290.227 209.738 290.479 210.206L294.529 217.723L303.115 220.521C303.461 220.634 303.741 220.892 303.881 221.228C304.022 221.564 304.008 221.945 303.845 222.27L301.619 226.7C301.336 227.264 300.677 227.528 300.083 227.316L290.314 223.833C290.026 223.73 289.785 223.525 289.638 223.257L283.552 212.159C283.357 211.802 283.347 211.373 283.525 211.008C283.704 210.643 284.049 210.388 284.45 210.323L289.181 209.565ZM286.597 212.511L291.602 221.638L299.882 224.59L300.958 222.447L293.279 219.945C292.973 219.845 292.718 219.632 292.565 219.349L288.699 212.174L286.597 212.511ZM323.205 227.201C323.637 227.243 324.016 227.506 324.207 227.895L331.914 243.614C332.093 243.98 332.083 244.412 331.885 244.769L324.707 257.743C324.438 258.229 323.881 258.479 323.339 258.357L316.685 256.859C316.439 256.803 316.215 256.675 316.044 256.49L307.856 247.668L292.58 247.749C292.208 247.751 291.856 247.588 291.617 247.304C291.378 247.02 291.277 246.644 291.343 246.279L293.696 233.13C293.788 232.618 294.187 232.216 294.699 232.121L302.054 230.757L301.666 229.838C301.535 229.526 301.536 229.174 301.668 228.862C301.801 228.551 302.054 228.307 302.37 228.185L309.358 225.504C309.588 225.415 309.84 225.397 310.08 225.451L317.313 227.08C317.986 227.232 318.409 227.901 318.258 228.574L317.531 231.799L318.482 232.452L322.088 227.691C322.35 227.345 322.773 227.16 323.205 227.201ZM322.856 230.818L319.755 234.913C319.351 235.446 318.601 235.567 318.05 235.189L315.418 233.38C314.997 233.09 314.794 232.574 314.906 232.075L315.544 229.244L309.9 227.973L304.472 230.057L304.961 231.218C305.108 231.567 305.089 231.963 304.909 232.296C304.73 232.629 304.409 232.863 304.037 232.932L296.005 234.422L294.068 245.241L308.392 245.166C308.742 245.164 309.076 245.309 309.314 245.565L317.612 254.505L322.974 255.712L329.382 244.129L322.856 230.818ZM335.658 252.055C336.068 251.746 336.624 251.718 337.062 251.985L341.964 254.972C342.328 255.193 342.554 255.585 342.563 256.011C342.573 256.437 342.365 256.838 342.011 257.076L330.485 264.834C330.157 265.055 329.744 265.108 329.371 264.976C328.998 264.844 328.709 264.543 328.593 264.165L327.159 259.509C327.004 259.006 327.18 258.46 327.6 258.143L335.658 252.055ZM336.487 254.562L329.806 259.61L330.486 261.82L338.997 256.091L336.487 254.562Z" fill="#A6A48A"/>
</g>
<path d="M181.32 34.2036L316.33 80.2204L267.148 298.583L132.138 252.566L181.32 34.2036Z" fill="#112138" fill-opacity="0.12"/>
<path d="M115.532 27.4432L181.858 34.3288L132.616 252.954L66.2094 246.426L115.532 27.4432Z" fill="url(#paint1_linear_673_17917)" fill-opacity="0.16"/>
<path d="M364.719 75.5112L426.034 89.3214L376.959 307.21L314.164 299.969L364.719 75.5112Z" fill="url(#paint2_linear_673_17917)" fill-opacity="0.16"/>
<rect x="99.4922" y="60.1357" width="26.9363" height="26.9363" rx="13.4681" transform="rotate(12.6931 99.4922 60.1357)" fill="#0C73FE"/>
<rect x="98.6439" y="58.7942" width="29.181" height="29.181" rx="14.5905" transform="rotate(12.6931 98.6439 58.7942)" stroke="white" stroke-opacity="0.72" stroke-width="2.24469"/>
<path d="M105.253 70.7883C104.759 71.1007 104.698 71.7972 105.129 72.1916L108.711 75.4668L105.608 77.4284L103.191 76.2112V76.2112C102.92 76.3825 102.839 76.7409 103.011 77.0117L106.111 81.9154C106.283 82.1862 106.641 82.267 106.912 82.0957V82.0957L106.849 79.3899L109.951 77.4282L111.374 82.0681C111.546 82.6268 112.201 82.8696 112.695 82.5573V82.5573L113.161 75.3982L116.95 73.0023C117.492 72.6596 117.653 71.9432 117.311 71.4014C116.968 70.8595 116.252 70.6981 115.71 71.0408L111.921 73.4367L105.253 70.7883V70.7883Z" fill="white"/>
<rect x="110.84" y="102.678" width="20.2022" height="20.2022" rx="10.1011" transform="rotate(12.6931 110.84 102.678)" fill="#0C73FE"/>
<rect x="109.992" y="101.336" width="22.4469" height="22.4469" rx="11.2235" transform="rotate(12.6931 109.992 101.336)" stroke="white" stroke-opacity="0.72" stroke-width="2.24469"/>
<path d="M115.524 111.121C115.195 111.329 115.154 111.793 115.441 112.056L117.829 114.24L115.761 115.547L114.149 114.736V114.736C113.969 114.85 113.915 115.089 114.029 115.27L116.096 118.539C116.211 118.719 116.45 118.773 116.63 118.659V118.659L116.588 116.855L118.656 115.547L119.605 118.641C119.719 119.013 120.156 119.175 120.486 118.967V118.967L120.796 114.194L123.322 112.597C123.683 112.368 123.791 111.891 123.563 111.529C123.334 111.168 122.857 111.061 122.495 111.289L119.969 112.886L115.524 111.121V111.121Z" fill="white"/>
<rect x="148.129" y="97.104" width="20.2022" height="20.2022" rx="10.1011" transform="rotate(12.6931 148.129 97.104)" fill="#0C73FE"/>
<rect x="147.281" y="95.7625" width="22.4469" height="22.4469" rx="11.2235" transform="rotate(12.6931 147.281 95.7625)" stroke="white" stroke-opacity="0.72" stroke-width="2.24469"/>
<path d="M152.813 105.547C152.484 105.755 152.443 106.22 152.73 106.483L155.118 108.666L153.05 109.974L151.438 109.162V109.162C151.258 109.276 151.204 109.515 151.318 109.696L153.385 112.965C153.5 113.146 153.739 113.199 153.919 113.085V113.085L153.877 111.281L155.945 109.974L156.894 113.067C157.008 113.439 157.445 113.601 157.775 113.393V113.393L158.085 108.62L160.611 107.023C160.973 106.795 161.08 106.317 160.852 105.956C160.623 105.594 160.146 105.487 159.784 105.715L157.258 107.313L152.813 105.547V105.547Z" fill="white"/>
<rect x="153.734" y="165.564" width="20.2022" height="20.2022" rx="10.1011" transform="rotate(12.6931 153.734 165.564)" fill="#0C73FE"/>
<rect x="152.886" y="164.222" width="22.4469" height="22.4469" rx="11.2235" transform="rotate(12.6931 152.886 164.222)" stroke="white" stroke-opacity="0.72" stroke-width="2.24469"/>
<path d="M158.419 174.007C158.09 174.215 158.048 174.68 158.336 174.942L160.724 177.126L158.656 178.434L157.044 177.622V177.622C156.863 177.736 156.81 177.975 156.924 178.156L158.991 181.425C159.105 181.606 159.344 181.659 159.525 181.545V181.545L159.482 179.741L161.551 178.434L162.5 181.527C162.614 181.899 163.051 182.061 163.38 181.853V181.853L163.691 177.08L166.217 175.483C166.578 175.255 166.686 174.777 166.457 174.416C166.229 174.054 165.751 173.947 165.39 174.175L162.864 175.773L158.419 174.007V174.007Z" fill="white"/>
<rect x="209.094" y="196.924" width="20.2022" height="20.2022" rx="10.1011" transform="rotate(12.6931 209.094 196.924)" fill="#0C73FE"/>
<rect x="208.245" y="195.582" width="22.4469" height="22.4469" rx="11.2235" transform="rotate(12.6931 208.245 195.582)" stroke="white" stroke-opacity="0.72" stroke-width="2.24469"/>
<path d="M213.778 205.367C213.449 205.575 213.408 206.039 213.695 206.302L216.083 208.486L214.015 209.793L212.403 208.982V208.982C212.223 209.096 212.169 209.335 212.283 209.516L214.35 212.785C214.465 212.965 214.703 213.019 214.884 212.905V212.905L214.842 211.101L216.91 209.793L217.859 212.886C217.973 213.259 218.41 213.421 218.74 213.213V213.213L219.05 208.44L221.576 206.843C221.937 206.614 222.045 206.137 221.817 205.775C221.588 205.414 221.11 205.306 220.749 205.535L218.223 207.132L213.778 205.367V205.367Z" fill="white"/>
<rect x="190.73" y="58.3223" width="26.9363" height="26.9363" rx="13.4681" transform="rotate(12.6931 190.73 58.3223)" fill="#0C73FE"/>
<rect x="189.882" y="56.9807" width="29.181" height="29.181" rx="14.5905" transform="rotate(12.6931 189.882 56.9807)" stroke="white" stroke-opacity="0.72" stroke-width="2.24469"/>
<path d="M196.492 68.9748C195.998 69.2872 195.936 69.9837 196.367 70.3781L199.949 73.6533L196.847 75.6149L194.429 74.3978V74.3978C194.158 74.569 194.078 74.9274 194.249 75.1982L197.35 80.1019C197.521 80.3728 197.879 80.4535 198.15 80.2822V80.2822L198.087 77.5764L201.189 75.6148L202.613 80.2546C202.784 80.8133 203.44 81.0561 203.934 80.7438V80.7438L204.4 73.5847L208.188 71.1888C208.73 70.8462 208.892 70.1298 208.549 69.5879C208.206 69.046 207.49 68.8847 206.948 69.2273L203.159 71.6232L196.492 68.9748V68.9748Z" fill="white"/>
<rect x="201.953" y="161.577" width="26.9363" height="26.9363" rx="13.4681" transform="rotate(12.6931 201.953 161.577)" fill="#0C73FE"/>
<rect x="201.105" y="160.236" width="29.181" height="29.181" rx="14.5905" transform="rotate(12.6931 201.105 160.236)" stroke="white" stroke-opacity="0.72" stroke-width="2.24469"/>
<path d="M207.714 172.23C207.22 172.542 207.159 173.239 207.59 173.633L211.171 176.908L208.069 178.87L205.652 177.653V177.653C205.381 177.824 205.3 178.182 205.472 178.453L208.572 183.357C208.744 183.628 209.102 183.708 209.373 183.537V183.537L209.31 180.831L212.412 178.87L213.835 183.51C214.007 184.068 214.662 184.311 215.156 183.999V183.999L215.622 176.84L219.411 174.444C219.953 174.101 220.114 173.385 219.772 172.843C219.429 172.301 218.713 172.14 218.171 172.482L214.382 174.878L207.714 172.23V172.23Z" fill="white"/>
<rect x="252.309" y="112.32" width="20.2022" height="20.2022" rx="10.1011" transform="rotate(12.6931 252.309 112.32)" fill="#0C73FE"/>
<rect x="251.46" y="110.979" width="22.4469" height="22.4469" rx="11.2235" transform="rotate(12.6931 251.46 110.979)" stroke="white" stroke-opacity="0.72" stroke-width="2.24469"/>
<path d="M256.993 120.763C256.664 120.972 256.623 121.436 256.91 121.699L259.298 123.882L257.23 125.19L255.618 124.379V124.379C255.438 124.493 255.384 124.732 255.498 124.912L257.565 128.181C257.679 128.362 257.918 128.416 258.099 128.302V128.302L258.057 126.498L260.125 125.19L261.074 128.283C261.188 128.656 261.625 128.818 261.954 128.609V128.609L262.265 123.837L264.791 122.239C265.152 122.011 265.26 121.533 265.031 121.172C264.803 120.811 264.325 120.703 263.964 120.932L261.438 122.529L256.993 120.763V120.763Z" fill="white"/>
<rect x="274.855" y="148.401" width="20.2022" height="20.2022" rx="10.1011" transform="rotate(12.6931 274.855 148.401)" fill="#0C73FE"/>
<rect x="274.007" y="147.06" width="22.4469" height="22.4469" rx="11.2235" transform="rotate(12.6931 274.007 147.06)" stroke="white" stroke-opacity="0.72" stroke-width="2.24469"/>
<path d="M279.54 156.844C279.211 157.053 279.17 157.517 279.457 157.78L281.845 159.963L279.777 161.271L278.165 160.46V160.46C277.984 160.574 277.931 160.813 278.045 160.993L280.112 164.262C280.226 164.443 280.465 164.497 280.646 164.383V164.383L280.604 162.579L282.672 161.271L283.621 164.364C283.735 164.737 284.172 164.899 284.501 164.69V164.69L284.812 159.918L287.338 158.32C287.699 158.092 287.807 157.614 287.578 157.253C287.35 156.892 286.872 156.784 286.511 157.013L283.985 158.61L279.54 156.844V156.844Z" fill="white"/>
<rect x="314.152" y="113.592" width="26.9363" height="26.9363" rx="13.4681" transform="rotate(12.6931 314.152 113.592)" fill="#0C73FE"/>
<rect x="313.304" y="112.251" width="29.181" height="29.181" rx="14.5905" transform="rotate(12.6931 313.304 112.251)" stroke="white" stroke-opacity="0.72" stroke-width="2.24469"/>
<path d="M319.914 124.245C319.42 124.557 319.358 125.254 319.789 125.648L323.371 128.923L320.268 130.885L317.851 129.668V129.668C317.58 129.839 317.5 130.197 317.671 130.468L320.772 135.372C320.943 135.643 321.301 135.724 321.572 135.552V135.552L321.509 132.846L324.611 130.885L326.034 135.525C326.206 136.083 326.862 136.326 327.356 136.014V136.014L327.821 128.855L331.61 126.459C332.152 126.116 332.314 125.4 331.971 124.858C331.628 124.316 330.912 124.155 330.37 124.497L326.581 126.893L319.914 124.245V124.245Z" fill="white"/>
<rect x="317.812" y="235.216" width="26.9363" height="26.9363" rx="13.4681" transform="rotate(12.6931 317.812 235.216)" fill="#0C73FE"/>
<rect x="316.964" y="233.874" width="29.181" height="29.181" rx="14.5905" transform="rotate(12.6931 316.964 233.874)" stroke="white" stroke-opacity="0.72" stroke-width="2.24469"/>
<path d="M323.574 245.868C323.08 246.181 323.018 246.877 323.449 247.272L327.031 250.547L323.929 252.508L321.511 251.291V251.291C321.24 251.463 321.16 251.821 321.331 252.092L324.432 256.995C324.603 257.266 324.961 257.347 325.232 257.176V257.176L325.169 254.47L328.271 252.508L329.695 257.148C329.866 257.707 330.522 257.95 331.016 257.637V257.637L331.482 250.478L335.27 248.082C335.812 247.74 335.974 247.023 335.631 246.481C335.288 245.94 334.572 245.778 334.03 246.121L330.241 248.517L323.574 245.868V245.868Z" fill="white"/>
<rect x="119.531" y="185.955" width="26.9363" height="26.9363" rx="13.4681" transform="rotate(12.6931 119.531 185.955)" fill="#0C73FE"/>
<rect x="118.683" y="184.613" width="29.181" height="29.181" rx="14.5905" transform="rotate(12.6931 118.683 184.613)" stroke="white" stroke-opacity="0.72" stroke-width="2.24469"/>
<path d="M125.292 196.607C124.799 196.92 124.737 197.616 125.168 198.01L128.75 201.286L125.647 203.247L123.23 202.03V202.03C122.959 202.201 122.878 202.56 123.05 202.831L126.151 207.734C126.322 208.005 126.68 208.086 126.951 207.915V207.915L126.888 205.209L129.99 203.247L131.413 207.887C131.585 208.446 132.241 208.688 132.734 208.376V208.376L133.2 201.217L136.989 198.821C137.531 198.478 137.692 197.762 137.35 197.22C137.007 196.678 136.291 196.517 135.749 196.86L131.96 199.256L125.292 196.607V196.607Z" fill="white"/>
</g>
<defs>
<linearGradient id="paint0_linear_673_17917" x1="5.35196" y1="242.591" x2="122.508" y2="268.979" gradientUnits="userSpaceOnUse">
<stop stop-color="#112138"/>
<stop offset="1" stop-color="#112138" stop-opacity="0"/>
</linearGradient>
<linearGradient id="paint1_linear_673_17917" x1="159.722" y1="132.61" x2="93.3052" y2="127.042" gradientUnits="userSpaceOnUse">
<stop stop-color="white"/>
<stop offset="1" stop-color="white" stop-opacity="0"/>
</linearGradient>
<linearGradient id="paint2_linear_673_17917" x1="392.945" y1="206.277" x2="342.713" y2="197.972" gradientUnits="userSpaceOnUse">
<stop stop-color="white"/>
<stop offset="1" stop-color="white" stop-opacity="0"/>
</linearGradient>
<clipPath id="clip0_673_17917">
<rect width="386.087" height="250.283" fill="white" transform="translate(54.9961) rotate(12.6931)"/>
</clipPath>
</defs>
</svg>
