<?xml version="1.0" encoding="UTF-8"?>
<!DOCTYPE svg PUBLIC "-//W3C//DTD SVG 1.1//EN" "http://www.w3.org/Graphics/SVG/1.1/DTD/svg11.dtd">
<svg xmlns="http://www.w3.org/2000/svg" version="1.1" width="414px" height="376px" style="shape-rendering:geometricPrecision; text-rendering:geometricPrecision; image-rendering:optimizeQuality; fill-rule:evenodd; clip-rule:evenodd" xmlns:xlink="http://www.w3.org/1999/xlink">
<g><path style="opacity:0.115" fill="#0d6dfd" d="M 359.5,200.5 C 361.163,122.72 326.163,69.2204 254.5,40C 220.093,29.836 185.759,30.0027 151.5,40.5C 153.761,38.745 156.428,37.5784 159.5,37C 234.922,19.6868 294.755,42.5201 339,105.5C 350.802,126.377 358.135,148.711 361,172.5C 361.667,180.5 361.667,188.5 361,196.5C 360.79,198.058 360.29,199.391 359.5,200.5 Z"/></g>
<g><path style="opacity:0.991" fill="#fefeff" d="M 359.5,200.5 C 358.298,208.719 356.964,217.052 355.5,225.5C 355.5,225.833 355.5,226.167 355.5,226.5C 354.2,230.057 352.867,233.724 351.5,237.5C 330.5,238.833 309.5,238.833 288.5,237.5C 285.564,230.613 281.897,224.279 277.5,218.5C 276.92,216.251 275.587,214.585 273.5,213.5C 267.683,204.681 260.016,198.015 250.5,193.5C 246.653,190.407 242.32,188.074 237.5,186.5C 233.86,184.338 229.86,182.838 225.5,182C 211.493,180.047 197.493,180.047 183.5,182C 180.282,182.9 177.282,184.067 174.5,185.5C 173.791,186.404 172.791,186.737 171.5,186.5C 167.849,187.659 164.515,189.326 161.5,191.5C 159.973,191.427 158.973,192.094 158.5,193.5C 156.147,194.34 154.147,195.674 152.5,197.5C 150.596,197.738 149.262,198.738 148.5,200.5C 146.246,201.124 144.579,202.457 143.5,204.5C 143.167,205.5 142.5,206.167 141.5,206.5C 139.738,207.262 138.738,208.596 138.5,210.5C 137.167,211.167 136.167,212.167 135.5,213.5C 133.453,215.55 131.786,217.883 130.5,220.5C 128.684,222.118 127.351,224.118 126.5,226.5C 124.132,230.067 122.132,233.9 120.5,238C 99.1589,238.833 77.8255,238.666 56.5,237.5C 56.0057,235.974 55.339,234.641 54.5,233.5C 53.596,232.791 53.2627,231.791 53.5,230.5C 52.4005,223.996 51.0672,217.663 49.5,211.5C 46.8333,195.167 46.8333,178.833 49.5,162.5C 51.0694,157.006 52.4027,151.34 53.5,145.5C 53.2627,144.209 53.596,143.209 54.5,142.5C 55.7345,139.67 56.7345,136.67 57.5,133.5C 59.5375,129.739 61.2042,125.739 62.5,121.5C 64.341,119.151 65.6743,116.485 66.5,113.5C 68.4168,110.669 70.0834,107.669 71.5,104.5C 74.5515,100.777 77.2181,96.7771 79.5,92.5C 82.4905,89.2077 85.4905,85.8743 88.5,82.5C 90.543,81.4206 91.8763,79.754 92.5,77.5C 96.1203,75.5472 99.1203,72.8805 101.5,69.5C 101.833,68.5 102.5,67.8333 103.5,67.5C 106.117,66.2141 108.45,64.5475 110.5,62.5C 110.5,61.8333 110.833,61.5 111.5,61.5C 114.68,59.7451 117.68,57.7451 120.5,55.5C 124.836,53.668 128.836,51.3346 132.5,48.5C 132.842,47.6618 133.508,47.3284 134.5,47.5C 140.349,45.4027 146.015,43.0694 151.5,40.5C 185.759,30.0027 220.093,29.836 254.5,40C 326.163,69.2204 361.163,122.72 359.5,200.5 Z M 252.5,134.5 C 251.833,134.5 251.5,134.833 251.5,135.5C 245.125,137.671 238.792,139.671 232.5,141.5C 228.021,141.536 223.688,142.369 219.5,144C 217.206,146.718 216.206,149.885 216.5,153.5C 215.883,153.611 215.383,153.944 215,154.5C 215.194,158.26 214.027,161.426 211.5,164C 207.886,165.32 204.22,166.487 200.5,167.5C 199.252,166.96 198.085,166.293 197,165.5C 195.941,160.888 194.441,156.554 192.5,152.5C 191.666,151.252 190.333,150.585 188.5,150.5C 182.224,151.205 176.224,152.539 170.5,154.5C 170.167,154.5 169.833,154.5 169.5,154.5C 168.761,154.631 168.094,154.464 167.5,154C 165.361,151.522 163.361,149.022 161.5,146.5C 160.979,141.913 159.312,137.913 156.5,134.5C 155.09,130.296 154.423,125.963 154.5,121.5C 157.85,121.335 161.183,121.502 164.5,122C 168.677,124.838 173.177,127.005 178,128.5C 179.876,128.475 181.376,127.809 182.5,126.5C 184.099,126.768 185.432,126.434 186.5,125.5C 191.332,125.227 193.332,122.56 192.5,117.5C 193.86,113.607 195.526,109.773 197.5,106C 201.988,104.035 206.655,103.369 211.5,104C 213.319,108.605 214.985,113.272 216.5,118C 229.233,115.764 241.233,117.764 252.5,124C 253.804,124.804 254.471,125.971 254.5,127.5C 253.827,129.851 253.16,132.184 252.5,134.5 Z M 256.5,159.5 C 256.953,160.458 257.619,161.292 258.5,162C 262.229,163.537 265.895,165.037 269.5,166.5C 271.732,168.963 274.398,170.963 277.5,172.5C 283.573,178.244 289.573,183.911 295.5,189.5C 295.833,191.833 297.167,193.167 299.5,193.5C 300.561,196.864 301.561,200.197 302.5,203.5C 301.127,203.657 299.793,203.49 298.5,203C 294.635,197.099 289.968,191.932 284.5,187.5C 281.097,182.766 276.764,179.099 271.5,176.5C 269.049,173.723 266.049,171.723 262.5,170.5C 261.486,169.326 260.153,168.66 258.5,168.5C 255.753,165.793 252.42,164.127 248.5,163.5C 246.786,162.262 244.786,161.595 242.5,161.5C 239.223,159.283 235.556,157.616 231.5,156.5C 228.898,154.391 229.231,152.724 232.5,151.5C 240.517,154.178 248.517,156.845 256.5,159.5 Z M 150.5,168.5 C 148.067,168.273 146.401,169.273 145.5,171.5C 142.802,171.845 140.802,173.178 139.5,175.5C 136.112,176.348 133.779,178.348 132.5,181.5C 130.405,182.412 128.405,183.579 126.5,185C 125.177,185.816 124.511,186.983 124.5,188.5C 123.833,188.5 123.5,188.833 123.5,189.5C 122.504,189.414 121.671,189.748 121,190.5C 118.59,193.397 116.423,196.397 114.5,199.5C 112.952,199.821 112.285,200.821 112.5,202.5C 111.5,202.833 110.833,203.5 110.5,204.5C 108.689,204.428 107.356,203.595 106.5,202C 107.32,200.2 107.986,198.366 108.5,196.5C 109.906,196.027 110.573,195.027 110.5,193.5C 111.167,193.5 111.5,193.167 111.5,192.5C 112.906,192.027 113.573,191.027 113.5,189.5C 115.5,189.5 116.5,188.5 116.5,186.5C 117.167,186.5 117.5,186.167 117.5,185.5C 120.167,183.5 122.5,181.167 124.5,178.5C 125.833,178.5 126.5,177.833 126.5,176.5C 128.5,176.5 129.5,175.5 129.5,173.5C 130.492,173.672 131.158,173.338 131.5,172.5C 133.404,172.262 134.738,171.262 135.5,169.5C 137.632,169.446 138.965,168.446 139.5,166.5C 140.492,166.672 141.158,166.338 141.5,165.5C 145.687,164.244 149.354,162.244 152.5,159.5C 154.199,159.38 155.865,159.046 157.5,158.5C 159,158.453 160,159.119 160.5,160.5C 157.436,163.57 154.103,166.237 150.5,168.5 Z"/></g>
<g><path style="opacity:0.139" fill="#0d6dfd" d="M 151.5,40.5 C 146.015,43.0694 140.349,45.4027 134.5,47.5C 135.574,45.716 137.24,44.5494 139.5,44C 143.447,42.5162 147.447,41.3495 151.5,40.5 Z"/></g>
<g><path style="opacity:0.137" fill="#0d6dfd" d="M 132.5,48.5 C 128.836,51.3346 124.836,53.668 120.5,55.5C 123.879,52.1423 127.879,49.809 132.5,48.5 Z"/></g>
<g><path style="opacity:0.133" fill="#0d6dfd" d="M 120.5,55.5 C 117.68,57.7451 114.68,59.7451 111.5,61.5C 113.677,58.2461 116.677,56.2461 120.5,55.5 Z"/></g>
<g><path style="opacity:0.104" fill="#0d6dfd" d="M 110.5,62.5 C 108.45,64.5475 106.117,66.2141 103.5,67.5C 104.979,64.6951 107.312,63.0284 110.5,62.5 Z"/></g>
<g><path style="opacity:0.185" fill="#0d6dfd" d="M 101.5,69.5 C 99.1203,72.8805 96.1203,75.5472 92.5,77.5C 94.5301,73.8065 97.5301,71.1399 101.5,69.5 Z"/></g>
<g><path style="opacity:0.183" fill="#0d6dfd" d="M 92.5,77.5 C 91.8763,79.754 90.543,81.4206 88.5,82.5C 89.1355,80.2054 90.4689,78.5387 92.5,77.5 Z"/></g>
<g><path style="opacity:0.138" fill="#0d6dfd" d="M 88.5,82.5 C 85.4905,85.8743 82.4905,89.2077 79.5,92.5C 81.1243,87.9108 84.1243,84.5775 88.5,82.5 Z"/></g>
<g><path style="opacity:0.114" fill="#0d6dfd" d="M 79.5,92.5 C 77.2181,96.7771 74.5515,100.777 71.5,104.5C 73.0575,99.6364 75.7242,95.6364 79.5,92.5 Z"/></g>
<g><path style="opacity:0.139" fill="#0d6dfd" d="M 252.5,134.5 C 253.16,132.184 253.827,129.851 254.5,127.5C 254.471,125.971 253.804,124.804 252.5,124C 241.233,117.764 229.233,115.764 216.5,118C 214.985,113.272 213.319,108.605 211.5,104C 206.655,103.369 201.988,104.035 197.5,106C 195.526,109.773 193.86,113.607 192.5,117.5C 191.598,107.904 195.931,102.738 205.5,102C 207.833,101.333 210.167,101.333 212.5,102C 214.7,106.627 216.367,111.461 217.5,116.5C 218.333,116.833 219.167,117.167 220,117.5C 232.211,114.422 243.711,116.255 254.5,123C 255.167,124.333 255.833,125.667 256.5,127C 255.973,130.005 254.64,132.505 252.5,134.5 Z"/></g>
<g><path style="opacity:0.142" fill="#0d6dfd" d="M 71.5,104.5 C 70.0834,107.669 68.4168,110.669 66.5,113.5C 66.8838,109.728 68.5505,106.728 71.5,104.5 Z"/></g>
<g><path style="opacity:0.166" fill="#0d6dfd" d="M 203.5,109.5 C 207.782,109.64 210.115,111.973 210.5,116.5C 210.24,118.187 209.573,119.687 208.5,121C 205.895,122.021 203.228,122.855 200.5,123.5C 199.713,122.758 199.047,121.925 198.5,121C 199.278,117.853 200.111,114.687 201,111.5C 201.995,110.934 202.828,110.267 203.5,109.5 Z"/></g>
<g><path style="opacity:0.924" fill="#fefffe" d="M 204.5,110.5 C 207.901,112.521 209.067,115.521 208,119.5C 205.699,120.867 203.199,121.534 200.5,121.5C 199.901,116.949 201.234,113.283 204.5,110.5 Z"/></g>
<g><path style="opacity:0.152" fill="#0d6dfd" d="M 66.5,113.5 C 65.6743,116.485 64.341,119.151 62.5,121.5C 62.7936,118.246 64.127,115.579 66.5,113.5 Z"/></g>
<g><path style="opacity:0.197" fill="#0d6dfd" d="M 192.5,117.5 C 193.332,122.56 191.332,125.227 186.5,125.5C 187.531,124.751 188.698,124.085 190,123.5C 190.845,121.389 191.678,119.389 192.5,117.5 Z"/></g>
<g><path style="opacity:0.084" fill="#0d6dfd" d="M 182.5,126.5 C 181.376,127.809 179.876,128.475 178,128.5C 173.177,127.005 168.677,124.838 164.5,122C 161.183,121.502 157.85,121.335 154.5,121.5C 154.423,125.963 155.09,130.296 156.5,134.5C 153.6,130.682 152.434,126.348 153,121.5C 156.595,119.544 160.428,119.044 164.5,120C 167.833,122 171.167,124 174.5,126C 177.146,126.497 179.813,126.664 182.5,126.5 Z"/></g>
<g><path style="opacity:0.136" fill="#0d6dfd" d="M 62.5,121.5 C 61.2042,125.739 59.5375,129.739 57.5,133.5C 57.7366,130.353 58.5699,127.353 60,124.5C 60.3768,123.058 61.2101,122.058 62.5,121.5 Z"/></g>
<g><path style="opacity:0.16" fill="#0d6dfd" d="M 244.5,127.5 C 240.319,125.885 235.985,124.885 231.5,124.5C 223.467,125.707 215.467,127.04 207.5,128.5C 217.076,124.89 227.076,123.39 237.5,124C 240.281,124.522 242.615,125.689 244.5,127.5 Z"/></g>
<g><path style="opacity:0.939" fill="#fdfdff" d="M 244.5,127.5 C 245.091,128.151 245.757,128.818 246.5,129.5C 243.816,130.753 241.15,131.753 238.5,132.5C 232.972,133.306 227.472,134.306 222,135.5C 220.566,135.07 219.399,134.236 218.5,133C 216.833,132.333 215.167,132.333 213.5,133C 211.214,138.595 209.88,144.429 209.5,150.5C 208.531,152.663 207.698,154.996 207,157.5C 205.612,158.554 204.112,158.72 202.5,158C 201.22,153.389 199.886,148.889 198.5,144.5C 197.047,135.066 193.714,134.232 188.5,142C 184.377,143.192 180.377,144.359 176.5,145.5C 174.143,145.663 171.81,145.497 169.5,145C 168.934,144.005 168.267,143.172 167.5,142.5C 166.459,138.746 165.125,135.08 163.5,131.5C 164,131.167 164.5,130.833 165,130.5C 167.737,132.079 170.571,133.412 173.5,134.5C 175.833,134.5 178.167,134.5 180.5,134.5C 189.783,133.26 198.783,131.26 207.5,128.5C 215.467,127.04 223.467,125.707 231.5,124.5C 235.985,124.885 240.319,125.885 244.5,127.5 Z"/></g>
<g><path style="opacity:0.128" fill="#0d6dfd" d="M 244.5,127.5 C 245.5,127.5 246.5,127.5 247.5,127.5C 247.762,128.978 247.429,130.311 246.5,131.5C 243.916,132.393 241.249,132.726 238.5,132.5C 241.15,131.753 243.816,130.753 246.5,129.5C 245.757,128.818 245.091,128.151 244.5,127.5 Z"/></g>
<g><path style="opacity:0.149" fill="#0d6dfd" d="M 207.5,128.5 C 198.783,131.26 189.783,133.26 180.5,134.5C 189.171,131.549 198.171,129.549 207.5,128.5 Z"/></g>
<g><path style="opacity:0.107" fill="#0d6dfd" d="M 173.5,134.5 C 170.571,133.412 167.737,132.079 165,130.5C 164.5,130.833 164,131.167 163.5,131.5C 165.125,135.08 166.459,138.746 167.5,142.5C 164.868,138.901 163.035,134.901 162,130.5C 166.728,129.108 170.561,130.441 173.5,134.5 Z"/></g>
<g><path style="opacity:0.107" fill="#0d6dfd" d="M 238.5,132.5 C 233.207,135.035 227.541,136.702 221.5,137.5C 219.52,136.516 217.853,135.183 216.5,133.5C 215.833,133.833 215.167,134.167 214.5,134.5C 213.073,140.033 211.406,145.366 209.5,150.5C 209.88,144.429 211.214,138.595 213.5,133C 215.167,132.333 216.833,132.333 218.5,133C 219.399,134.236 220.566,135.07 222,135.5C 227.472,134.306 232.972,133.306 238.5,132.5 Z"/></g>
<g><path style="opacity:0.147" fill="#0d6dfd" d="M 57.5,133.5 C 56.7345,136.67 55.7345,139.67 54.5,142.5C 54.1376,138.919 55.1376,135.919 57.5,133.5 Z"/></g>
<g><path style="opacity:0.165" fill="#0d6dfd" d="M 156.5,134.5 C 159.312,137.913 160.979,141.913 161.5,146.5C 159.315,142.787 157.648,138.787 156.5,134.5 Z"/></g>
<g><path style="opacity:0.127" fill="#0d6dfd" d="M 251.5,135.5 C 245.923,139.468 239.59,141.468 232.5,141.5C 238.792,139.671 245.125,137.671 251.5,135.5 Z"/></g>
<g><path style="opacity:0.15" fill="#0d6dfd" d="M 198.5,144.5 C 197.281,142.058 195.781,139.724 194,137.5C 191.545,138.743 190.378,140.743 190.5,143.5C 185.893,144.554 181.227,145.221 176.5,145.5C 180.377,144.359 184.377,143.192 188.5,142C 193.714,134.232 197.047,135.066 198.5,144.5 Z"/></g>
<g><path style="opacity:0.156" fill="#0d6dfd" d="M 232.5,141.5 C 228.623,142.641 224.623,143.808 220.5,145C 218.671,147.682 217.337,150.516 216.5,153.5C 216.206,149.885 217.206,146.718 219.5,144C 223.688,142.369 228.021,141.536 232.5,141.5 Z"/></g>
<g><path style="opacity:0.086" fill="#0d6dfd" d="M 167.5,142.5 C 168.267,143.172 168.934,144.005 169.5,145C 171.81,145.497 174.143,145.663 176.5,145.5C 174.034,146.634 171.367,146.801 168.5,146C 167.663,144.989 167.33,143.822 167.5,142.5 Z"/></g>
<g><path style="opacity:0.197" fill="#0d6dfd" d="M 198.5,144.5 C 199.886,148.889 201.22,153.389 202.5,158C 204.112,158.72 205.612,158.554 207,157.5C 207.698,154.996 208.531,152.663 209.5,150.5C 209.579,153.271 209.079,155.937 208,158.5C 205.936,159.591 203.769,159.758 201.5,159C 199.8,154.335 198.8,149.501 198.5,144.5 Z"/></g>
<g><path style="opacity:0.17" fill="#0d6dfd" d="M 53.5,145.5 C 52.4027,151.34 51.0694,157.006 49.5,162.5C 49.8784,157.106 50.7117,151.773 52,146.5C 52.3826,145.944 52.8826,145.611 53.5,145.5 Z"/></g>
<g><path style="opacity:0.095" fill="#0d6dfd" d="M 161.5,146.5 C 163.361,149.022 165.361,151.522 167.5,154C 168.094,154.464 168.761,154.631 169.5,154.5C 168.749,155.573 167.749,155.74 166.5,155C 163.928,152.687 162.261,149.854 161.5,146.5 Z"/></g>
<g><path style="opacity:0.142" fill="#0d6dfd" d="M 192.5,152.5 C 191.258,151.957 189.925,151.623 188.5,151.5C 182.532,152.761 176.532,153.761 170.5,154.5C 176.224,152.539 182.224,151.205 188.5,150.5C 190.333,150.585 191.666,151.252 192.5,152.5 Z"/></g>
<g><path style="opacity:0.136" fill="#0d6dfd" d="M 256.5,159.5 C 248.517,156.845 240.517,154.178 232.5,151.5C 229.231,152.724 228.898,154.391 231.5,156.5C 235.556,157.616 239.223,159.283 242.5,161.5C 237.814,160.327 233.314,158.66 229,156.5C 227.607,152.798 228.774,150.798 232.5,150.5C 241.186,151.947 249.186,154.947 256.5,159.5 Z"/></g>
<g><path style="opacity:0.099" fill="#0d6dfd" d="M 192.5,152.5 C 194.441,156.554 195.941,160.888 197,165.5C 198.085,166.293 199.252,166.96 200.5,167.5C 204.22,166.487 207.886,165.32 211.5,164C 214.027,161.426 215.194,158.26 215,154.5C 215.383,153.944 215.883,153.611 216.5,153.5C 216.765,157.962 215.432,161.795 212.5,165C 208.52,166.797 204.353,167.963 200,168.5C 198.289,168.561 196.956,167.894 196,166.5C 194.203,161.977 193.036,157.31 192.5,152.5 Z"/></g>
<g><path style="opacity:0.172" fill="#0d6dfd" d="M 150.5,168.5 C 154.103,166.237 157.436,163.57 160.5,160.5C 160,159.119 159,158.453 157.5,158.5C 155.865,159.046 154.199,159.38 152.5,159.5C 154.22,158.136 156.22,157.136 158.5,156.5C 161.984,158.599 162.318,161.099 159.5,164C 156.757,166.038 153.757,167.538 150.5,168.5 Z"/></g>
<g><path style="opacity:0.137" fill="#0d6dfd" d="M 152.5,159.5 C 149.354,162.244 145.687,164.244 141.5,165.5C 144.678,162.742 148.345,160.742 152.5,159.5 Z"/></g>
<g><path style="opacity:0.132" fill="#0d6dfd" d="M 256.5,159.5 C 261.32,161.074 265.653,163.407 269.5,166.5C 265.895,165.037 262.229,163.537 258.5,162C 257.619,161.292 256.953,160.458 256.5,159.5 Z"/></g>
<g><path style="opacity:0.134" fill="#0d6dfd" d="M 248.5,163.5 C 252.42,164.127 255.753,165.793 258.5,168.5C 254.849,167.341 251.515,165.674 248.5,163.5 Z"/></g>
<g><path style="opacity:0.137" fill="#0d6dfd" d="M 139.5,166.5 C 138.965,168.446 137.632,169.446 135.5,169.5C 136.436,168.026 137.77,167.026 139.5,166.5 Z"/></g>
<g><path style="opacity:0.122" fill="#0d6dfd" d="M 269.5,166.5 C 272.891,167.529 275.557,169.529 277.5,172.5C 274.398,170.963 271.732,168.963 269.5,166.5 Z"/></g>
<g><path style="opacity:0.196" fill="#0d6dfd" d="M 150.5,168.5 C 149.101,169.89 147.434,170.89 145.5,171.5C 146.401,169.273 148.067,168.273 150.5,168.5 Z"/></g>
<g><path style="opacity:0.156" fill="#0d6dfd" d="M 135.5,169.5 C 134.738,171.262 133.404,172.262 131.5,172.5C 132.262,170.738 133.596,169.738 135.5,169.5 Z"/></g>
<g><path style="opacity:0.121" fill="#0d6dfd" d="M 262.5,170.5 C 266.049,171.723 269.049,173.723 271.5,176.5C 267.975,175.241 264.975,173.241 262.5,170.5 Z"/></g>
<g><path style="opacity:0.132" fill="#0d6dfd" d="M 145.5,171.5 C 143.853,173.326 141.853,174.66 139.5,175.5C 140.802,173.178 142.802,171.845 145.5,171.5 Z"/></g>
<g><path style="opacity:0.138" fill="#0d6dfd" d="M 277.5,172.5 C 284.787,176.787 290.787,182.454 295.5,189.5C 289.573,183.911 283.573,178.244 277.5,172.5 Z"/></g>
<g><path style="opacity:0.185" fill="#0d6dfd" d="M 129.5,173.5 C 129.5,175.5 128.5,176.5 126.5,176.5C 127.167,175.167 128.167,174.167 129.5,173.5 Z"/></g>
<g><path style="opacity:0.181" fill="#0d6dfd" d="M 139.5,175.5 C 137.393,177.727 135.06,179.727 132.5,181.5C 133.779,178.348 136.112,176.348 139.5,175.5 Z"/></g>
<g><path style="opacity:0.193" fill="#0d6dfd" d="M 126.5,176.5 C 126.5,177.833 125.833,178.5 124.5,178.5C 124.833,177.5 125.5,176.833 126.5,176.5 Z"/></g>
<g><path style="opacity:0.129" fill="#0d6dfd" d="M 271.5,176.5 C 276.764,179.099 281.097,182.766 284.5,187.5C 279.868,184.202 275.534,180.536 271.5,176.5 Z"/></g>
<g><path style="opacity:0.11" fill="#0d6dfd" d="M 124.5,178.5 C 122.5,181.167 120.167,183.5 117.5,185.5C 118.833,182.167 121.167,179.833 124.5,178.5 Z"/></g>
<g><path style="opacity:0.11" fill="#0d6dfd" d="M 237.5,186.5 C 227.803,184.138 217.97,182.471 208,181.5C 203.771,182.151 199.604,182.151 195.5,181.5C 188.455,182.679 181.455,184.012 174.5,185.5C 177.282,184.067 180.282,182.9 183.5,182C 197.493,180.047 211.493,180.047 225.5,182C 229.86,182.838 233.86,184.338 237.5,186.5 Z"/></g>
<g><path style="opacity:0.175" fill="#0d6dfd" d="M 132.5,181.5 C 130.249,184.295 127.582,186.628 124.5,188.5C 124.511,186.983 125.177,185.816 126.5,185C 128.405,183.579 130.405,182.412 132.5,181.5 Z"/></g>
<g><path style="opacity:0.18" fill="#0d6dfd" d="M 116.5,186.5 C 116.5,188.5 115.5,189.5 113.5,189.5C 114.167,188.167 115.167,187.167 116.5,186.5 Z"/></g>
<g><path style="opacity:0.169" fill="#0d6dfd" d="M 171.5,186.5 C 168.753,189.207 165.42,190.873 161.5,191.5C 164.515,189.326 167.849,187.659 171.5,186.5 Z"/></g>
<g><path style="opacity:0.135" fill="#0d6dfd" d="M 237.5,186.5 C 242.32,188.074 246.653,190.407 250.5,193.5C 245.649,191.911 241.315,189.578 237.5,186.5 Z"/></g>
<g><path style="opacity:0.068" fill="#0d6dfd" d="M 195.5,188.5 C 199.683,187.189 204.016,187.189 208.5,188.5C 211.505,192.506 214.005,196.84 216,201.5C 216.599,203.535 216.099,205.201 214.5,206.5C 214.115,200.06 211.782,194.393 207.5,189.5C 203.555,188.509 199.555,188.176 195.5,188.5 Z"/></g>
<g><path style="opacity:0.132" fill="#0d6dfd" d="M 284.5,187.5 C 289.968,191.932 294.635,197.099 298.5,203C 299.793,203.49 301.127,203.657 302.5,203.5C 301.561,200.197 300.561,196.864 299.5,193.5C 301.657,195.804 303.324,198.471 304.5,201.5C 304.02,204.492 302.353,205.659 299.5,205C 293.913,199.65 288.913,193.817 284.5,187.5 Z"/></g>
<g><path style="opacity:0.14" fill="#0d6dfd" d="M 194.5,188.5 C 186.369,189.984 178.369,192.317 170.5,195.5C 177.675,190.779 185.675,188.446 194.5,188.5 Z"/></g>
<g><path style="opacity:0.977" fill="#fefeff" d="M 194.5,188.5 C 194.833,188.5 195.167,188.5 195.5,188.5C 199.555,188.176 203.555,188.509 207.5,189.5C 211.782,194.393 214.115,200.06 214.5,206.5C 211.131,208.515 207.798,210.515 204.5,212.5C 203.791,213.404 202.791,213.737 201.5,213.5C 197.345,214.742 193.678,216.742 190.5,219.5C 190.158,220.338 189.492,220.672 188.5,220.5C 184.436,222.022 181.436,224.689 179.5,228.5C 177.427,231.043 176.094,234.043 175.5,237.5C 160.178,238.666 144.844,238.833 129.5,238C 130.914,236.007 131.914,233.84 132.5,231.5C 132.328,230.508 132.662,229.842 133.5,229.5C 135.083,227.337 136.416,225.004 137.5,222.5C 139.543,221.421 140.876,219.754 141.5,217.5C 141.5,216.833 141.833,216.5 142.5,216.5C 145.5,214.167 148.167,211.5 150.5,208.5C 153.72,206.397 156.72,204.064 159.5,201.5C 162.669,200.083 165.669,198.417 168.5,196.5C 168.842,195.662 169.508,195.328 170.5,195.5C 178.369,192.317 186.369,189.984 194.5,188.5 Z"/></g>
<g><path style="opacity:0.198" fill="#0d6dfd" d="M 113.5,189.5 C 113.573,191.027 112.906,192.027 111.5,192.5C 111.427,190.973 112.094,189.973 113.5,189.5 Z"/></g>
<g><path style="opacity:0.15" fill="#0d6dfd" d="M 123.5,189.5 C 121.212,193.456 118.212,196.789 114.5,199.5C 116.423,196.397 118.59,193.397 121,190.5C 121.671,189.748 122.504,189.414 123.5,189.5 Z"/></g>
<g><path style="opacity:0.131" fill="#0d6dfd" d="M 219.5,189.5 C 219.196,190.15 218.863,190.817 218.5,191.5C 220.02,193.662 221.02,195.995 221.5,198.5C 219.42,196.682 218.086,194.349 217.5,191.5C 217.747,190.287 218.414,189.62 219.5,189.5 Z"/></g>
<g><path style="opacity:0.967" fill="#fdfdff" d="M 220.5,189.5 C 226.608,190.872 232.608,192.872 238.5,195.5C 239.791,195.263 240.791,195.596 241.5,196.5C 243.794,198.653 246.46,200.32 249.5,201.5C 250.473,203.068 250.64,204.735 250,206.5C 248.277,208.717 246.777,211.05 245.5,213.5C 245.672,214.492 245.338,215.158 244.5,215.5C 242.937,216.945 241.604,218.611 240.5,220.5C 238.808,222.205 237.475,224.205 236.5,226.5C 233.793,229.247 232.127,232.58 231.5,236.5C 216.074,238.46 200.407,239.127 184.5,238.5C 184.833,236.5 185.167,234.5 185.5,232.5C 187.167,231.5 188.5,230.167 189.5,228.5C 193.1,226.89 196.434,224.89 199.5,222.5C 203.797,221.345 207.797,219.679 211.5,217.5C 211.842,216.662 212.508,216.328 213.5,216.5C 216.453,215.213 218.786,213.213 220.5,210.5C 220.328,209.508 220.662,208.842 221.5,208.5C 224.167,205.167 224.167,201.833 221.5,198.5C 221.02,195.995 220.02,193.662 218.5,191.5C 218.863,190.817 219.196,190.15 219.5,189.5C 219.833,188.167 220.167,188.167 220.5,189.5 Z"/></g>
<g><path style="opacity:0.134" fill="#0d6dfd" d="M 220.5,189.5 C 227.333,189.366 233.333,191.366 238.5,195.5C 232.608,192.872 226.608,190.872 220.5,189.5 Z"/></g>
<g><path style="opacity:0.108" fill="#0d6dfd" d="M 295.5,189.5 C 297.167,190.5 298.5,191.833 299.5,193.5C 297.167,193.167 295.833,191.833 295.5,189.5 Z"/></g>
<g><path style="opacity:0.151" fill="#0d6dfd" d="M 161.5,191.5 C 161.027,192.906 160.027,193.573 158.5,193.5C 158.973,192.094 159.973,191.427 161.5,191.5 Z"/></g>
<g><path style="opacity:0.068" fill="#0d6dfd" d="M 110.5,193.5 C 110.573,195.027 109.906,196.027 108.5,196.5C 108.427,194.973 109.094,193.973 110.5,193.5 Z"/></g>
<g><path style="opacity:0.166" fill="#0d6dfd" d="M 158.5,193.5 C 157.198,195.822 155.198,197.155 152.5,197.5C 154.147,195.674 156.147,194.34 158.5,193.5 Z"/></g>
<g><path style="opacity:0.129" fill="#0d6dfd" d="M 250.5,193.5 C 260.016,198.015 267.683,204.681 273.5,213.5C 265.808,206.804 258.141,200.138 250.5,193.5 Z"/></g>
<g><path style="opacity:0.194" fill="#0d6dfd" d="M 108.5,196.5 C 107.986,198.366 107.32,200.2 106.5,202C 107.356,203.595 108.689,204.428 110.5,204.5C 107.967,205.903 106.3,205.07 105.5,202C 105.613,199.601 106.613,197.768 108.5,196.5 Z"/></g>
<g><path style="opacity:0.173" fill="#0d6dfd" d="M 168.5,196.5 C 165.669,198.417 162.669,200.083 159.5,201.5C 161.728,198.55 164.728,196.884 168.5,196.5 Z"/></g>
<g><path style="opacity:0.152" fill="#0d6dfd" d="M 241.5,196.5 C 244.005,196.98 246.338,197.98 248.5,199.5C 249.298,199.957 249.631,200.624 249.5,201.5C 246.46,200.32 243.794,198.653 241.5,196.5 Z"/></g>
<g><path style="opacity:0.117" fill="#0d6dfd" d="M 152.5,197.5 C 151.738,199.262 150.404,200.262 148.5,200.5C 149.262,198.738 150.596,197.738 152.5,197.5 Z"/></g>
<g><path style="opacity:0.228" fill="#0d6dfd" d="M 221.5,198.5 C 224.167,201.833 224.167,205.167 221.5,208.5C 222.833,205.167 222.833,201.833 221.5,198.5 Z"/></g>
<g><path style="opacity:0.132" fill="#0d6dfd" d="M 114.5,199.5 C 114.068,200.71 113.401,201.71 112.5,202.5C 112.285,200.821 112.952,199.821 114.5,199.5 Z"/></g>
<g><path style="opacity:0.161" fill="#0d6dfd" d="M 148.5,200.5 C 147.461,202.531 145.795,203.864 143.5,204.5C 144.579,202.457 146.246,201.124 148.5,200.5 Z"/></g>
<g><path style="opacity:0.186" fill="#0d6dfd" d="M 359.5,200.5 C 359.65,208.599 358.817,216.599 357,224.5C 356.617,225.056 356.117,225.389 355.5,225.5C 356.964,217.052 358.298,208.719 359.5,200.5 Z"/></g>
<g><path style="opacity:0.192" fill="#0d6dfd" d="M 159.5,201.5 C 156.72,204.064 153.72,206.397 150.5,208.5C 150.511,206.983 151.177,205.816 152.5,205C 154.577,203.295 156.91,202.128 159.5,201.5 Z"/></g>
<g><path style="opacity:0.117" fill="#0d6dfd" d="M 249.5,201.5 C 250.693,201.97 251.36,202.97 251.5,204.5C 250.724,208.404 248.724,211.404 245.5,213.5C 246.777,211.05 248.277,208.717 250,206.5C 250.64,204.735 250.473,203.068 249.5,201.5 Z"/></g>
<g><path style="opacity:0.1" fill="#0d6dfd" d="M 141.5,206.5 C 141.262,208.404 140.262,209.738 138.5,210.5C 138.738,208.596 139.738,207.262 141.5,206.5 Z"/></g>
<g><path style="opacity:0.176" fill="#0d6dfd" d="M 214.5,206.5 C 214.586,207.496 214.252,208.329 213.5,209C 210.691,210.741 207.691,211.908 204.5,212.5C 207.798,210.515 211.131,208.515 214.5,206.5 Z"/></g>
<g><path style="opacity:0.127" fill="#0d6dfd" d="M 259.5,208.5 C 258.167,209.833 256.833,211.167 255.5,212.5C 255.709,211.078 256.209,209.745 257,208.5C 257.977,207.226 258.811,207.226 259.5,208.5 Z"/></g>
<g><path style="opacity:0.139" fill="#0d6dfd" d="M 150.5,208.5 C 148.167,211.5 145.5,214.167 142.5,216.5C 144.167,212.833 146.833,210.167 150.5,208.5 Z"/></g>
<g><path style="opacity:0.96" fill="#fefeff" d="M 259.5,208.5 C 263.155,213.486 267.155,218.153 271.5,222.5C 272.34,224.853 273.674,226.853 275.5,228.5C 277.08,231.659 278.08,234.993 278.5,238.5C 265.808,238.732 253.141,238.398 240.5,237.5C 240.604,235.297 241.27,233.297 242.5,231.5C 242.328,230.508 242.662,229.842 243.5,229.5C 245.218,227.777 246.551,225.777 247.5,223.5C 249.063,222.055 250.396,220.389 251.5,218.5C 251.328,217.508 251.662,216.842 252.5,216.5C 253.974,215.564 254.974,214.23 255.5,212.5C 256.833,211.167 258.167,209.833 259.5,208.5 Z"/></g>
<g><path style="opacity:0.163" fill="#0d6dfd" d="M 259.5,208.5 C 261.716,209.203 263.549,210.536 265,212.5C 267.81,215.464 269.976,218.798 271.5,222.5C 267.155,218.153 263.155,213.486 259.5,208.5 Z"/></g>
<g><path style="opacity:0.08" fill="#0d6dfd" d="M 138.5,210.5 C 138.5,212.5 137.5,213.5 135.5,213.5C 136.167,212.167 137.167,211.167 138.5,210.5 Z"/></g>
<g><path style="opacity:0.162" fill="#0d6dfd" d="M 220.5,210.5 C 218.786,213.213 216.453,215.213 213.5,216.5C 215.239,213.757 217.573,211.757 220.5,210.5 Z"/></g>
<g><path style="opacity:0.16" fill="#0d6dfd" d="M 49.5,211.5 C 51.0672,217.663 52.4005,223.996 53.5,230.5C 50.7874,224.592 49.4541,218.258 49.5,211.5 Z"/></g>
<g><path style="opacity:0.152" fill="#0d6dfd" d="M 255.5,212.5 C 254.974,214.23 253.974,215.564 252.5,216.5C 252.554,214.368 253.554,213.035 255.5,212.5 Z"/></g>
<g><path style="opacity:0.143" fill="#0d6dfd" d="M 135.5,213.5 C 134.99,216.674 133.323,219.008 130.5,220.5C 131.786,217.883 133.453,215.55 135.5,213.5 Z"/></g>
<g><path style="opacity:0.161" fill="#0d6dfd" d="M 201.5,213.5 C 198.322,216.258 194.655,218.258 190.5,219.5C 193.678,216.742 197.345,214.742 201.5,213.5 Z"/></g>
<g><path style="opacity:0.159" fill="#0d6dfd" d="M 273.5,213.5 C 275.587,214.585 276.92,216.251 277.5,218.5C 275.413,217.415 274.08,215.749 273.5,213.5 Z"/></g>
<g><path style="opacity:0.127" fill="#0d6dfd" d="M 244.5,215.5 C 244.33,218.204 242.997,219.871 240.5,220.5C 241.604,218.611 242.937,216.945 244.5,215.5 Z"/></g>
<g><path style="opacity:0.179" fill="#0d6dfd" d="M 141.5,217.5 C 140.876,219.754 139.543,221.421 137.5,222.5C 138.136,220.205 139.469,218.539 141.5,217.5 Z"/></g>
<g><path style="opacity:0.159" fill="#0d6dfd" d="M 211.5,217.5 C 207.797,219.679 203.797,221.345 199.5,222.5C 202.952,219.781 206.952,218.115 211.5,217.5 Z"/></g>
<g><path style="opacity:0.187" fill="#0d6dfd" d="M 251.5,218.5 C 250.396,220.389 249.063,222.055 247.5,223.5C 247.67,220.796 249.003,219.129 251.5,218.5 Z"/></g>
<g><path style="opacity:0.143" fill="#0d6dfd" d="M 277.5,218.5 C 281.897,224.279 285.564,230.613 288.5,237.5C 309.5,238.833 330.5,238.833 351.5,237.5C 352.867,233.724 354.2,230.057 355.5,226.5C 355.627,230.949 354.627,235.116 352.5,239C 330.833,239.667 309.167,239.667 287.5,239C 284.299,232.099 280.966,225.266 277.5,218.5 Z"/></g>
<g><path style="opacity:0.152" fill="#0d6dfd" d="M 130.5,220.5 C 130.13,223.267 128.796,225.267 126.5,226.5C 127.351,224.118 128.684,222.118 130.5,220.5 Z"/></g>
<g><path style="opacity:0.16" fill="#0d6dfd" d="M 188.5,220.5 C 185.729,223.392 182.729,226.058 179.5,228.5C 181.436,224.689 184.436,222.022 188.5,220.5 Z"/></g>
<g><path style="opacity:0.159" fill="#0d6dfd" d="M 240.5,220.5 C 240.316,223.337 238.982,225.337 236.5,226.5C 237.475,224.205 238.808,222.205 240.5,220.5 Z"/></g>
<g><path style="opacity:0.187" fill="#0d6dfd" d="M 137.5,222.5 C 136.416,225.004 135.083,227.337 133.5,229.5C 133.555,226.386 134.888,224.052 137.5,222.5 Z"/></g>
<g><path style="opacity:0.178" fill="#0d6dfd" d="M 199.5,222.5 C 196.434,224.89 193.1,226.89 189.5,228.5C 192.069,225.272 195.402,223.272 199.5,222.5 Z"/></g>
<g><path style="opacity:0.16" fill="#0d6dfd" d="M 271.5,222.5 C 273.796,223.733 275.13,225.733 275.5,228.5C 273.674,226.853 272.34,224.853 271.5,222.5 Z"/></g>
<g><path style="opacity:0.171" fill="#0d6dfd" d="M 247.5,223.5 C 246.551,225.777 245.218,227.777 243.5,229.5C 243.684,226.663 245.018,224.663 247.5,223.5 Z"/></g>
<g><path style="opacity:0.134" fill="#0d6dfd" d="M 126.5,226.5 C 125.514,230.961 123.848,235.127 121.5,239C 99.4924,239.833 77.4924,239.666 55.5,238.5C 54.6906,236.929 54.3573,235.262 54.5,233.5C 55.339,234.641 56.0057,235.974 56.5,237.5C 77.8255,238.666 99.1589,238.833 120.5,238C 122.132,233.9 124.132,230.067 126.5,226.5 Z"/></g>
<g><path style="opacity:0.145" fill="#0d6dfd" d="M 236.5,226.5 C 235.325,230.183 233.659,233.516 231.5,236.5C 232.127,232.58 233.793,229.247 236.5,226.5 Z"/></g>
<g><path style="opacity:0.171" fill="#0d6dfd" d="M 179.5,228.5 C 178.435,231.997 177.435,235.497 176.5,239C 160.503,239.5 144.503,239.667 128.5,239.5C 128.794,236.246 130.127,233.579 132.5,231.5C 131.914,233.84 130.914,236.007 129.5,238C 144.844,238.833 160.178,238.666 175.5,237.5C 176.094,234.043 177.427,231.043 179.5,228.5 Z"/></g>
<g><path style="opacity:0.144" fill="#0d6dfd" d="M 189.5,228.5 C 188.5,230.167 187.167,231.5 185.5,232.5C 185.833,230.167 187.167,228.833 189.5,228.5 Z"/></g>
<g><path style="opacity:0.179" fill="#0d6dfd" d="M 275.5,228.5 C 277.223,230.253 278.723,232.253 280,234.5C 280.72,236.112 280.554,237.612 279.5,239C 266.119,239.903 252.786,239.57 239.5,238C 239.167,237.667 238.833,237.333 238.5,237C 239.191,235.933 239.691,234.766 240,233.5C 240.417,232.244 241.25,231.577 242.5,231.5C 241.27,233.297 240.604,235.297 240.5,237.5C 253.141,238.398 265.808,238.732 278.5,238.5C 278.08,234.993 277.08,231.659 275.5,228.5 Z"/></g>
<g><path style="opacity:0.191" fill="#0d6dfd" d="M 185.5,232.5 C 185.167,234.5 184.833,236.5 184.5,238.5C 200.407,239.127 216.074,238.46 231.5,236.5C 231.5,237.5 231.5,238.5 231.5,239.5C 215.5,239.5 199.5,239.5 183.5,239.5C 183.338,237.473 183.505,235.473 184,233.5C 184.383,232.944 184.883,232.611 185.5,232.5 Z"/></g>
<g><path style="opacity:0.286" fill="#0d6dfd" d="M 311.5,301.5 C 276.006,300.167 240.173,299.5 204,299.5C 168.167,299.833 132.333,300.167 96.5,300.5C 98.3936,301.945 100.06,303.612 101.5,305.5C 97.4592,304.833 95.4592,302.5 95.5,298.5C 167.834,298.333 240.167,298.5 312.5,299C 313.566,300.159 313.233,300.992 311.5,301.5 Z"/></g>
<g><path style="opacity:0.987" fill="#fefeff" d="M 311.5,301.5 C 306.127,305.844 300.794,310.177 295.5,314.5C 293.147,315.34 291.147,316.674 289.5,318.5C 284.5,320.664 279.833,323.331 275.5,326.5C 275.158,327.338 274.492,327.672 273.5,327.5C 269.503,328.603 265.836,330.269 262.5,332.5C 260.447,332.402 258.78,333.069 257.5,334.5C 251.598,335.721 245.932,337.388 240.5,339.5C 239.432,340.434 238.099,340.768 236.5,340.5C 214.833,343.167 193.167,343.167 171.5,340.5C 169.901,340.768 168.568,340.434 167.5,339.5C 162.36,337.543 157.027,335.876 151.5,334.5C 149.214,334.405 147.214,333.738 145.5,332.5C 142.164,330.269 138.497,328.603 134.5,327.5C 133.508,327.672 132.842,327.338 132.5,326.5C 129.992,324.076 126.992,322.41 123.5,321.5C 115.91,316.585 108.577,311.252 101.5,305.5C 100.06,303.612 98.3936,301.945 96.5,300.5C 132.333,300.167 168.167,299.833 204,299.5C 240.173,299.5 276.006,300.167 311.5,301.5 Z"/></g>
<g><path style="opacity:0.142" fill="#0d6dfd" d="M 311.5,301.5 C 307.346,307.249 302.013,311.582 295.5,314.5C 300.794,310.177 306.127,305.844 311.5,301.5 Z"/></g>
<g><path style="opacity:0.115" fill="#0d6dfd" d="M 101.5,305.5 C 108.577,311.252 115.91,316.585 123.5,321.5C 116.557,318.694 110.224,314.861 104.5,310C 102.859,308.871 101.859,307.371 101.5,305.5 Z"/></g>
<g><path style="opacity:0.121" fill="#0d6dfd" d="M 295.5,314.5 C 294.267,316.796 292.267,318.13 289.5,318.5C 291.147,316.674 293.147,315.34 295.5,314.5 Z"/></g>
<g><path style="opacity:0.136" fill="#0d6dfd" d="M 289.5,318.5 C 285.743,322.713 281.076,325.38 275.5,326.5C 279.833,323.331 284.5,320.664 289.5,318.5 Z"/></g>
<g><path style="opacity:0.132" fill="#0d6dfd" d="M 123.5,321.5 C 126.992,322.41 129.992,324.076 132.5,326.5C 129.052,325.61 126.052,323.943 123.5,321.5 Z"/></g>
<g><path style="opacity:0.123" fill="#0d6dfd" d="M 134.5,327.5 C 138.497,328.603 142.164,330.269 145.5,332.5C 141.311,331.779 137.645,330.113 134.5,327.5 Z"/></g>
<g><path style="opacity:0.152" fill="#0d6dfd" d="M 273.5,327.5 C 273.53,328.497 273.03,329.164 272,329.5C 268.853,330.662 265.686,331.662 262.5,332.5C 265.836,330.269 269.503,328.603 273.5,327.5 Z"/></g>
<g><path style="opacity:0.193" fill="#0d6dfd" d="M 262.5,332.5 C 261.22,333.931 259.553,334.598 257.5,334.5C 258.78,333.069 260.447,332.402 262.5,332.5 Z"/></g>
<g><path style="opacity:0.154" fill="#0d6dfd" d="M 151.5,334.5 C 157.027,335.876 162.36,337.543 167.5,339.5C 163.121,338.987 158.787,338.153 154.5,337C 153.058,336.623 152.058,335.79 151.5,334.5 Z"/></g>
<g><path style="opacity:0.17" fill="#0d6dfd" d="M 257.5,334.5 C 256.653,335.966 255.32,336.8 253.5,337C 249.246,338.314 244.913,339.147 240.5,339.5C 245.932,337.388 251.598,335.721 257.5,334.5 Z"/></g>
<g><path style="opacity:0.106" fill="#0d6dfd" d="M 171.5,340.5 C 193.167,343.167 214.833,343.167 236.5,340.5C 232.409,341.895 228.076,342.728 223.5,343C 209.833,343.667 196.167,343.667 182.5,343C 178.608,342.581 174.942,341.748 171.5,340.5 Z"/></g>
</svg>
